#!OML:ASF X:\für Bonn\!DataBase\2005_08_12_Daniel\c3d\Daniel.ASF
:FULLY-SPECIFIED
:DEGREES
172
root -8.94189 17.4322 -29.3073 -23.5394 230.412 -343.562
lowerback 11.8763 0.283044 4.6041
upperback 2.05524 0.886825 1.89266
thorax -4.45924 0.312172 -0.747096
lowerneck -3.76797 5.39563 -1.68419
upperneck 7.37179 7.67978 -7.22991
head 3.29724 3.39324 -1.76563
rclavicle -2.99544e-014 -3.18055e-015
rhumerus -56.9725 28.1479 -106.964
rradius 105.918
rwrist 4.3415
rhand -28.0459 32.4929
rfingers 7.12502
rthumb -1.43021 2.51799
lclavicle -2.99544e-014 -3.18055e-015
lhumerus -84.3642 -14.9758 92.5733
lradius 111.11
lwrist 22.8281
lhand 4.6775 -6.19947
lfingers 7.12502
lthumb 30.0623 21.3765
rfemur 14.6852 -6.4462 12.9829
rtibia 52.1027
rfoot 7.67138 -5.07925
rtoes -19.4025
lfemur -24.5041 -0.962464 -15.7579
ltibia 33.5703
lfoot -25.0543 12.2356
ltoes -3.96895
173
root -9.15305 17.3178 -29.4534 -23.6695 231.123 -344.115
lowerback 12.2824 0.288518 3.90508
upperback 2.16195 0.817044 1.77134
thorax -4.58391 0.285599 -0.473347
lowerneck -3.9539 5.40096 -1.7735
upperneck 7.31887 7.7035 -7.31152
head 3.31533 3.39673 -1.77184
rclavicle -6.50647e-014 0
rhumerus -57.0989 27.6158 -107.389
rradius 105.431
rwrist 4.79657
rhand -28.1076 33.2281
rfingers 7.12502
rthumb -1.48987 3.2536
lclavicle -6.50647e-014 0
lhumerus -83.6334 -14.7267 92.2404
lradius 111.101
lwrist 22.6371
lhand 4.86519 -6.66828
lfingers 7.12502
lthumb 30.2414 20.875
rfemur 14.2964 -7.13384 11.7734
rtibia 54.4848
rfoot 6.85534 -4.59134
rtoes -19.3018
lfemur -24.5731 -0.168301 -16.5407
ltibia 34.9131
lfoot -22.9023 11.7088
ltoes -3.81494
174
root -9.36231 17.1993 -29.5962 -23.5203 231.899 -344.921
lowerback 12.6266 0.277158 3.09887
upperback 2.229 0.702341 1.55084
thorax -4.71572 0.239818 -0.234318
lowerneck -3.97264 5.44813 -1.68821
upperneck 7.20197 7.76572 -7.47577
head 3.29395 3.42725 -1.83838
rclavicle -3.04265e-014 2.38542e-014
rhumerus -57.1106 27.025 -107.823
rradius 104.679
rwrist 5.28002
rhand -28.3226 33.7248
rfingers 7.12502
rthumb -1.69751 3.75184
lclavicle -3.04265e-014 2.38542e-014
lhumerus -82.5977 -14.3994 91.7664
lradius 110.928
lwrist 22.6052
lhand 5.10473 -6.89143
lfingers 7.12502
lthumb 30.4699 20.6097
rfemur 13.768 -7.72851 10.4283
rtibia 56.87
rfoot 6.07664 -4.17596
rtoes -18.2922
lfemur -24.7995 0.687185 -17.5138
ltibia 36.4953
lfoot -20.4678 11.0637
ltoes -1.90171
175
root -9.56627 17.0785 -29.7328 -23.0858 232.78 -346.088
lowerback 12.9841 0.300171 2.10916
upperback 2.32743 0.595468 1.25271
thorax -4.82028 0.200552 0.0270795
lowerneck -3.96943 5.4931 -1.6404
upperneck 7.08878 7.8216 -7.55231
head 3.26285 3.4583 -1.86996
rclavicle -1.42529e-013 -3.18055e-015
rhumerus -56.869 26.2292 -108.081
rradius 103.556
rwrist 5.9909
rhand -28.5933 34.1841
rfingers 7.12502
rthumb -1.95896 4.21338
lclavicle -1.42529e-013 -3.18055e-015
lhumerus -81.1808 -14.1201 91.2464
lradius 110.596
lwrist 22.5953
lhand 5.38905 -6.94218
lfingers 7.12502
lthumb 30.741 20.5083
rfemur 13.1737 -8.29424 8.84653
rtibia 59.2135
rfoot 5.3216 -3.74484
rtoes -16.9448
lfemur -25.1351 1.53158 -18.765
ltibia 38.2958
lfoot -18.0626 10.3835
ltoes -1.35349
176
root -9.76752 16.9594 -29.8632 -22.4918 233.678 -347.411
lowerback 13.318 0.315697 1.12821
upperback 2.43811 0.465953 0.90996
thorax -4.89556 0.14887 0.242299
lowerneck -3.91836 5.553 -1.68273
upperneck 6.95636 7.8942 -7.56386
head 3.2086 3.49937 -1.86477
rclavicle -2.15433e-014 -1.35174e-014
rhumerus -56.3721 25.4008 -108.18
rradius 102.078
rwrist 6.91337
rhand -28.9452 34.5278
rfingers 7.12502
rthumb -2.29875 4.56049
lclavicle -2.15433e-014 -1.35174e-014
lhumerus -79.4302 -13.7836 90.7079
lradius 109.999
lwrist 22.621
lhand 5.62669 -6.93343
lfingers 7.12502
lthumb 30.9675 20.4742
rfemur 12.4578 -8.70601 7.29506
rtibia 61.4779
rfoot 4.58745 -3.29174
rtoes -15.5136
lfemur -25.4758 2.27663 -20.1489
ltibia 40.2693
lfoot -15.8574 9.88868
ltoes -2.67886
177
root -9.9594 16.8491 -29.9879 -21.7278 234.623 -348.889
lowerback 13.6561 0.357955 0.200282
upperback 2.54781 0.363832 0.466378
thorax -4.96994 0.108006 0.318197
lowerneck -3.82918 5.58851 -1.7053
upperneck 6.84846 7.92809 -7.46781
head 3.14911 3.52743 -1.82987
rclavicle -9.66839e-014 -1.19271e-014
rhumerus -55.6769 24.2758 -108.202
rradius 100.338
rwrist 8.0166
rhand -29.4155 34.8519
rfingers 7.12502
rthumb -2.75298 4.8899
lclavicle -9.66839e-014 -1.19271e-014
lhumerus -77.3905 -13.6296 90.0753
lradius 109.231
lwrist 22.5088
lhand 5.80639 -6.65779
lfingers 7.12502
lthumb 31.1388 20.7171
rfemur 11.6045 -9.01022 5.85912
rtibia 63.6237
rfoot 3.91909 -2.7831
rtoes -15.1632
lfemur -25.8757 2.83582 -21.6386
ltibia 42.34
lfoot -13.9993 9.48147
ltoes -4.07035
178
root -10.1484 16.7505 -30.1061 -20.844 235.594 -350.481
lowerback 14.0795 0.378531 -0.70772
upperback 2.6171 0.22598 0.0421118
thorax -5.13121 0.0484103 0.409941
lowerneck -3.78776 5.64923 -1.9393
upperneck 6.86361 8.01156 -7.3286
head 3.12976 3.56737 -1.74084
rclavicle 1.28713e-014 2.14687e-014
rhumerus -54.9537 23.1579 -108.066
rradius 98.3105
rwrist 9.3876
rhand -30.1169 34.9119
rfingers 7.12502
rthumb -3.43038 4.95971
lclavicle 1.28713e-014 2.14687e-014
lhumerus -74.948 -13.3936 89.5867
lradius 107.844
lwrist 22.1859
lhand 5.67227 -6.45067
lfingers 7.12502
lthumb 31.011 20.9487
rfemur 10.6775 -9.2139 4.50822
rtibia 65.6321
rfoot 3.26855 -2.19638
rtoes -15.2241
lfemur -26.2572 3.2445 -23.1811
ltibia 44.4254
lfoot -12.7019 8.88564
ltoes -4.1333
179
root -10.3341 16.6664 -30.2196 -19.8692 236.568 -352.129
lowerback 14.4936 0.436552 -1.51744
upperback 2.68684 0.136656 -0.42065
thorax -5.28486 0.00987097 0.397138
lowerneck -3.75901 5.66894 -2.1445
upperneck 6.96506 8.04292 -7.14997
head 3.13984 3.58049 -1.64563
rclavicle 3.72721e-014 1.19271e-014
rhumerus -54.1164 21.7149 -107.784
rradius 96.063
rwrist 10.8718
rhand -30.803 34.9736
rfingers 7.12502
rthumb -4.09286 5.03313
lclavicle 3.72721e-014 1.19271e-014
lhumerus -72.2385 -13.2276 89.1201
lradius 106.029
lwrist 21.546
lhand 5.28546 -6.39219
lfingers 7.12502
lthumb 30.6422 21.0769
rfemur 9.64465 -9.32044 3.34673
rtibia 67.4868
rfoot 2.56597 -1.67345
rtoes -15.9861
lfemur -26.5303 3.46667 -24.6876
ltibia 46.4012
lfoot -11.894 8.21891
ltoes -3.64926
180
root -10.5166 16.5945 -30.3271 -18.8626 237.516 -353.715
lowerback 14.8222 0.486877 -2.1995
upperback 2.76741 0.0483288 -0.877793
thorax -5.37876 -0.0315598 0.317746
lowerneck -3.70207 5.6873 -2.40572
upperneck 7.03649 8.06894 -6.92528
head 3.12878 3.59319 -1.52716
rclavicle -1.16041e-014 -1.74931e-014
rhumerus -53.1681 19.9637 -107.358
rradius 93.555
rwrist 12.4365
rhand -31.3915 35.1152
rfingers 7.12502
rthumb -4.66115 5.18644
lclavicle -1.16041e-014 -1.74931e-014
lhumerus -69.2409 -12.8916 88.6273
lradius 103.957
lwrist 20.2795
lhand 4.48802 -6.40298
lfingers 7.12502
lthumb 29.8815 21.2057
rfemur 8.46516 -9.47678 2.32144
rtibia 69.196
rfoot 1.77588 -1.05359
rtoes -16.9759
lfemur -26.6664 3.64688 -26.0657
ltibia 48.173
lfoot -11.5871 7.52431
ltoes -1.99466
181
root -10.6954 16.5386 -30.4272 -17.8328 238.386 -355.26
lowerback 15.1072 0.54537 -2.78938
upperback 2.85504 -0.021048 -1.32843
thorax -5.44105 -0.0666819 0.1891
lowerneck -3.61723 5.69722 -2.5464
upperneck 7.11266 8.08082 -6.7902
head 3.1248 3.5989 -1.46035
rclavicle 1.47995e-013 -7.95139e-016
rhumerus -52.1809 18.1202 -106.866
rradius 90.7075
rwrist 13.7669
rhand -32.1008 35.3062
rfingers 7.12502
rthumb -5.34608 5.39359
lclavicle 1.47995e-013 -7.95139e-016
lhumerus -65.9112 -12.1762 88.0596
lradius 101.827
lwrist 18.4161
lhand 3.62525 -6.17044
lfingers 7.12502
lthumb 29.0579 21.5834
rfemur 7.16685 -9.59402 1.45865
rtibia 70.7265
rfoot 1.07706 -0.452236
rtoes -16.9766
lfemur -26.6201 3.74819 -27.3154
ltibia 49.654
lfoot -11.6832 6.95984
ltoes 0.598897
182
root -10.8703 16.4984 -30.5234 -16.9551 239.177 -356.632
lowerback 15.3609 0.632979 -3.30592
upperback 2.9725 -0.0415632 -1.72362
thorax -5.45528 -0.0808698 0.0675886
lowerneck -3.42506 5.6987 -2.49085
upperneck 7.12048 8.06923 -6.7937
head 3.09399 3.59836 -1.47669
rclavicle 4.85035e-014 6.36111e-015
rhumerus -51.0476 16.2768 -106.323
rradius 87.714
rwrist 14.6768
rhand -32.5205 35.1239
rfingers 7.12502
rthumb -5.75129 5.22196
lclavicle 4.85035e-014 6.36111e-015
lhumerus -62.6435 -10.9382 87.5476
lradius 99.783
lwrist 15.8645
lhand 2.53046 -6.19479
lfingers 7.12502
lthumb 28.0118 21.7346
rfemur 5.7874 -9.57079 0.884884
rtibia 72.0805
rfoot 0.364918 0.11167
rtoes -16.6597
lfemur -26.3279 3.8658 -28.3676
ltibia 50.8418
lfoot -12.1182 6.34218
ltoes 3.7442
183
root -11.0411 16.4752 -30.6172 -16.2663 239.896 -357.681
lowerback 15.5352 0.707157 -3.70187
upperback 3.05792 -0.0514184 -2.04359
thorax -5.46006 -0.0897271 -0.0452181
lowerneck -3.12932 5.72078 -2.36832
upperneck 7.12432 8.0767 -6.81438
head 3.04723 3.61062 -1.51216
rclavicle 2.15681e-014 1.43125e-014
rhumerus -49.9298 14.4875 -105.729
rradius 84.6256
rwrist 15.0689
rhand -32.8743 34.7116
rfingers 7.12502
rthumb -6.09284 4.8192
lclavicle 2.15681e-014 1.43125e-014
lhumerus -59.6603 -9.34376 87.1329
lradius 97.9058
lwrist 13.0488
lhand 1.09382 -6.2278
lfingers 7.12502
lthumb 26.6376 21.9182
rfemur 4.27032 -9.35704 0.862654
rtibia 73.2476
rfoot -0.393236 0.40733
rtoes -16.3634
lfemur -25.9025 4.02989 -29.1479
ltibia 51.7535
lfoot -12.6469 5.65003
ltoes 6.96089
